<?xml version="1.0" encoding="UTF-8"?>
<svg id="Layer_1" xmlns="http://www.w3.org/2000/svg" version="1.1" viewBox="0 0 500 500">
  <!-- Generator: Adobe Illustrator 30.1.0, SVG Export Plug-In . SVG Version: 2.1.1 Build 136)  -->
  <defs>
    <style>
      .st0 {
        fill: #013367;
      }
    </style>
  </defs>
  <g>
    <path class="st0" d="M1231.26,400.1h-9.04c-17.1-1.84-31.5-9.03-42.11-20.85-14.65-16.31-18.99-36.05-13.23-60.29l-90.04-90.12-8.89,1.62c-16.72,3.03-34.17-1.31-47.88-11.93-14.05-10.88-22.84-27.18-24.12-44.72-.54-7.4.12-11.54,1.44-18.82.91-4.98,3.88-8.91,7.96-10.49,4.88-1.87,10.02-.79,13.74,2.93l22.38,22.27c2.35,2.34,5.32,3.45,8.84,3.56,3.4-.04,6.67-1.46,8.98-3.88,4.68-4.91,4.58-12.56-.23-17.4l-22.46-22.56c-3.41-3.43-4.48-8.49-2.79-13.2,1.47-4.08,5.25-7.16,9.87-8.06l1.72-.34c2.84-.56,5.79-1.14,8.79-1.35,18.37-1.28,36.31,5.59,49.12,18.86,12.95,13.42,19.24,31.79,17.27,50.4-.41,3.86-1.26,7.52-2.09,11.05l-.17.73,90.02,90.07c12.12-2.8,22.19-3.21,31.55-1.31,26.84,5.46,46.73,28.06,49.48,56.23l.03.41-.21,9.67c-.3.91-.49,2.38-.69,3.94-.65,5.06-1.64,12.71-8.96,15.4-4.76,1.72-9.84.66-13.32-2.8l-22.61-22.49c-2.31-2.29-5.67-3.64-8.75-3.52-3.38.03-6.63,1.38-8.91,3.71-4.85,4.95-4.73,12.76.27,17.77l22.22,22.29c3.35,3.35,4.47,8.12,3,12.78-2.47,7.78-10.37,8.83-15.59,9.51-1.57.21-3.04.4-3.96.7l-.64.21ZM1079.67,219.83l96.51,96.6-.6,2.32c-5.84,22.38-2.32,40.34,10.77,54.92,9.21,10.25,21.77,16.51,36.33,18.09l7.29-.02c1.48-.41,3.1-.62,4.8-.85,4.74-.62,7.9-1.22,8.7-3.73.52-1.67.19-3.21-.94-4.33l-22.22-22.3c-8.28-8.3-8.42-21.28-.33-29.55,3.84-3.91,9.25-6.18,14.85-6.22h.15c5.52,0,10.69,2.11,14.56,5.95l22.61,22.49c1.63,1.61,3.52,1.25,4.53.87,2.37-.87,2.94-3.98,3.54-8.61.22-1.7.43-3.32.83-4.79v-7.54c-2.47-24.39-19.65-43.93-42.8-48.64-8.67-1.75-18.26-1.2-30.16,1.79l-2.3.57-96.62-96.67,1.2-5.28c.8-3.44,1.56-6.69,1.91-10.03,1.71-16.15-3.75-32.08-14.97-43.7-11.09-11.49-26.64-17.43-42.5-16.32-2.49.18-5.05.68-7.77,1.21l-1.74.35c-1.7.33-3.11,1.38-3.58,2.68-.28.79-.77,2.82.85,4.45l22.46,22.56c8.03,8.08,8.19,20.86.36,29.08-3.86,4.04-9.3,6.41-14.93,6.48-5.57.26-10.91-2.05-14.87-5.99l-22.38-22.27c-1.38-1.38-3.04-1.75-4.82-1.05-1.33.52-2.36,2.08-2.74,4.17-1.26,6.95-1.8,10.3-1.33,16.71,1.1,15.17,8.72,29.28,20.89,38.71,11.83,9.17,26.85,12.93,41.26,10.3l13.2-2.4Z"/>
    <path class="st0" d="M1037.55,400.1l-8.88-.05c-14-2.2-25.7-11.38-30.53-23.96-5.37-13.95-2.33-28.87,8.14-39.91l82.99-82.99,53.24,53.2-83.17,83.18c-6.95,6.78-15.07,9.14-21.36,10.44l-.42.09ZM1029.66,391.73h7.03c7.47-1.59,12.66-4.1,16.76-8.11l77.22-77.22-41.4-41.36-76.99,77c-8.11,8.56-10.51,20.2-6.33,31.06,3.74,9.71,12.8,16.82,23.7,18.64ZM1043.05,366.81c-3.06,0-6.09-1.17-8.58-3.53-2.42-2.3-3.84-5.56-3.89-8.94-.04-3.36,1.24-6.53,3.62-8.91l50.61-50.63c4.92-4.9,12.66-5.03,17.63-.32,2.48,2.35,3.86,5.52,3.9,8.9.04,3.42-1.3,6.67-3.79,9.17l-50.2,50.22c-2.69,2.69-6.01,4.04-9.3,4.04ZM1093.82,299.38c-1.09,0-2.2.45-3.09,1.35l-50.61,50.63c-.99.99-1.19,2.11-1.18,2.88.02,1.14.48,2.22,1.28,2.98,1.83,1.73,4.25,1.59,6.2-.36l50.2-50.22c1.13-1.13,1.35-2.32,1.34-3.13-.01-1.11-.47-2.15-1.3-2.94-.82-.78-1.83-1.17-2.85-1.17Z"/>
    <path class="st0" d="M1183.07,240.5l-29.57-29.58,56.27-56.05-.76-.83c-2.64-2.84-3.84-6.66-3.3-10.47.52-3.7,2.67-6.93,5.91-8.88l44.26-26.56c4.94-2.97,11.24-2.24,15.32,1.79l12.37,12.2c2.49,2.47,4.3,5.07,5.51,7.96l.33.78v4.99l-1.47,3.21-26.93,44.96c-1.96,3.26-5.21,5.42-8.93,5.94-3.8.52-7.62-.67-10.44-3.32l-2.31-2.16-56.26,56.01ZM1165.35,210.94l17.73,17.74,56.06-55.82,8.22,7.68c.98.91,2.34,1.31,3.56,1.14.71-.1,2.03-.48,2.91-1.96l27.21-45.66v-1.45c-.77-1.59-1.86-3.04-3.35-4.52l-12.37-12.2c-1.37-1.35-3.42-1.59-5.12-.57l-44.26,26.56c-1.37.82-1.81,2.02-1.92,2.87-.18,1.29.25,2.64,1.14,3.61l6.26,6.75-56.06,55.84Z"/>
    <path class="st0" d="M1043.05,366.81c-3.06,0-6.09-1.17-8.58-3.53-2.42-2.3-3.84-5.56-3.89-8.94-.04-3.36,1.24-6.53,3.62-8.91l50.61-50.63c4.92-4.9,12.66-5.03,17.63-.32,2.48,2.35,3.86,5.52,3.9,8.9.04,3.42-1.3,6.67-3.79,9.17l-50.2,50.22c-2.69,2.69-6.01,4.04-9.3,4.04ZM1093.82,299.38c-1.09,0-2.2.45-3.09,1.35l-50.61,50.63c-.99.99-1.19,2.11-1.18,2.88.02,1.14.48,2.22,1.28,2.98,1.83,1.73,4.25,1.59,6.2-.36l50.2-50.22c1.13-1.13,1.35-2.32,1.34-3.13-.01-1.11-.47-2.16-1.3-2.94s-1.83-1.17-2.85-1.17Z"/>
  </g>
  <g>
    <path class="st0" d="M402.31,221.87l13.55-23.34c1.21-2.08.1-4.78-1.82-5.89l-22.16-12.75c-1.35-.78-4.39.03-5.14,1.34l-13.62,23.61,2.81,20.59-22.63,39.22-15.27-8.63c-2.48-1.4-4.85-.1-6.13,2.12l-14.06,24.35c-9.8-2.21-19.25-2.13-29.67-1.88l-.07-25.98c14.66-13.47,24.74-30.52,31.16-49.52,10.05-4.76,16.96-14.14,17.28-25.43.3-10.5-4.85-19.88-13.16-26.02l-5.25-42.17c-3.25-26.11-40.85-39.78-58.37-39.78h-19.5c-13.16,2.09-26.26,4.69-37.85,12.13-10.01,6.42-18.21,15.7-19.7,27.75l-5.21,42.06c-8.53,6.34-13.71,16.02-13.14,26.75.6,11.19,7.64,20.12,17.32,24.79,6.39,19.22,16.68,36.16,31.13,49.52l-.06,25.79-12.9.06c-8.57-.08-16.78,1.35-24.77,4.17l-25.81-45.5c7.72-10.1,9.81-23.5,5-35.71-9.49-24.12-38.57-26.35-41.43-20.59-.45.9-.35,3.02.23,4.02l13.02,22.55-15.18,8.86-12.99-22.48c-.62-1.08-2.51-2.36-3.58-2.35-1.32.01-2.87.98-3.92,2.12-9.43,13.49-8.97,31.27,1.09,43.96,8.35,10.54,21.71,15.73,35.03,13.4l24.9,44.32c-7.72,5.66-14.36,12.17-20.45,19.64-10.51,13.03-18.15,27.28-23.94,43.08-7.45,20.72-10.96,42.04-10.95,64.1,0,2.46,1.65,4.19,4.33,4.19h299.2c2.21,0,4.32-1.38,4.32-3.54.05-41.31-12.52-84.7-41.59-115.46l14.76-25.63c1.1-1.91.56-4.42-1.04-5.77l-15.55-9.02,22.82-39.53,18.99-7.49ZM320.76,292.31l.02,52.79c-6.97-3.22-14-4.07-21.18.37l-.04-56.44c7.29.01,13.93,1.09,21.2,3.29ZM190.79,113.5c.88-7.41,5.22-13.27,10.39-18.29,23.77-20.13,72.97-20.22,97.31-1.05,5.95,5.25,10.71,11.64,11.68,19.72l4.5,37.66h-128.39s4.51-38.05,4.51-38.05ZM310.54,160.16c-3.71,5.61-7.12,10.39-11.07,15.31-1.79,2.23-4.71,3.37-7.85,2.56-25.94-6.7-56.96-6.7-82.36-.07-3.07.8-6.16.04-8.15-2.44-3.96-4.94-7.46-9.84-11.08-15.36h120.52ZM189.25,201.3c-.49-1.55-1.81-3.03-3.3-3.6-7.52-2.91-12.86-9.8-13.24-18.01-.32-6.97,2.91-13.42,8.03-17.86,4.69,6.57,9,12.81,13.9,18.91,4.01,4.99,9.66,7.01,15.91,5.44,25.65-6.45,53.89-6.41,79.52.01,5.85,1.47,11.43-.24,15.31-4.87,5.21-6.24,9.65-12.78,14.53-19.67,5.27,4.39,8.58,10.97,8.26,18.05-.37,8.08-5.49,14.94-13.13,17.95-1.5.59-2.88,2.02-3.29,3.32-6.74,21.27-20.07,43.71-39.88,54.93-13.46,7.63-29.04,7.71-42.54.18-19.84-11.06-33.35-33.55-40.08-54.78ZM279.84,283.26l-29.37,41.06-29.31-40.85.05-22.48c18.49,12,40.24,12.08,58.49-.15l.13,22.41ZM208.76,289.14c2.37-.16,4.12-.15,6.22,0l31.97,44.69c.68.95,2.47,1.87,3.41,1.89s2.86-.86,3.5-1.76l31.91-44.6c1.49-.45,3.54-.47,5.45-.17v68.07s-82.46,0-82.46,0v-68.12ZM179.19,292.29c7.19-2.1,13.93-3.23,21.2-3.28v56.28c-6.98-3.82-14.28-3.95-21.21.14v-53.14ZM111.66,243.84c-15.01-4.81-24.07-21.57-17.46-37.51l11.43,19.57c.97,1.67,3.45,3.13,5.62,1.88l22.68-13.06c1.72-.99,2.57-3.76,1.57-5.53l-11.31-19.97c17.22,2.17,27.29,18.8,23.45,34.52-3.81,15.63-20.32,25.13-35.97,20.12ZM133.61,251.01s.79-.31,1.18-.47l7.27-4.16c.59-.45,1.71-1.39,1.71-1.39l24.2,42.59s-1.12.52-1.67.79l-7.4,3.92c-.38.23-1.13.72-1.13.72l-24.16-41.99ZM104.62,420.04c-.06-7.62.67-15.15,1.76-23.29h49.72s.04,23.26.04,23.26l-51.52.03ZM156.13,361.74v26.61s-48.27.04-48.27.04c5.33-27.78,17.61-55.39,37.86-75.47,7.44-7.05,15.12-13.05,25.08-17.33l.03,61.61-10.02.08c-2.54-.18-4.64,1.6-4.68,4.46ZM164.52,419.97l-.04-54.17,6.73-.17c1.9,7.33,6.58,12.32,14.38,14.41l.06,39.85-21.14.08ZM179.94,364.83c-1.87-5.78,1.1-11.91,7.37-13.53,6.01-1.55,11.33,2.4,12.65,7.6,1.43,5.62-2.08,11.14-7.33,12.64-5.55,1.58-11.11-1.78-12.7-6.7ZM194.02,419.96v-39.82c7.34-2.04,12.52-6.97,14.4-14.5l83.01-.02c2.05,7.15,6.94,12.53,14.55,14.5l.02,39.83h-111.99ZM300.25,364.66c-1.67-5.03.79-11.31,6.92-13.22,5.8-1.81,11.5,1.69,13.02,6.99,1.6,5.58-1.31,11.43-7.34,13.14-4.92,1.4-10.75-1.34-12.6-6.91ZM314.37,419.93l.04-39.83c7.44-2.01,12.56-6.99,14.38-14.45l6.73.15v54.1s-21.15.03-21.15.03ZM395.54,420.03h-51.64s0-23.28,0-23.28h49.74c1.07,8.03,1.68,15.33,1.91,23.28ZM392.17,388.37l-48.21.02-.12-26.99c0-2.16-1.87-3.93-3.89-4.15l-10.81-.05.04-61.68c36.04,17.12,55.8,55.94,62.98,92.83ZM367.92,282.88l-11.76,20.31c-9.29-7.98-18.3-13.79-29.98-18.15l11.29-19.75,30.45,17.59ZM391.64,189.45l14.84,8.48-9.9,17.27-12.84,4.93-2.03-13.4,9.94-17.28Z"/>
    <path class="st0" d="M286.19,100.67h-71.67c-2.57,0-4.38,1.98-4.38,4.38v21.7c.01,2.32,1.93,4.22,4.37,4.22h72c2.74-.31,3.98-2.02,4.23-4.23l-.02-21.67c0-2.58-1.85-4.41-4.54-4.41ZM218.58,122.64l-.02-13.6h63.71s.15,13.54.15,13.54l-63.84.05Z"/>
  </g>
  <g>
    <path class="st0" d="M2067.31,424.36l-.72-.16c-.76-.16-76.44-17.35-101.69-84-19.02-50.21-13.98-165.36-13.75-170.23l.1-2.3,115-43.18,118.11,43.15.14,2.26c.06,1.04,6.33,104.74-13.68,170.08-20.43,66.7-99.45,83.54-102.81,84.23l-.72.14ZM1958.02,172.57c-.62,16.69-3.67,120.09,13.4,165.16,22.6,59.68,88.34,77.61,95.95,79.5,7.95-1.84,78.62-19.83,96.82-79.29,18.01-58.81,14.3-149.87,13.51-165.35l-111.4-40.69-108.28,40.66Z"/>
    <path class="st0" d="M2067.43,397.65l-.59-.13c-.62-.14-62.82-14.26-83.56-69.03-15.63-41.27-11.48-135.89-11.3-139.9l.09-1.88,94.51-35.49,97.06,35.46.12,1.86c.05.86,5.2,86.08-11.24,139.77-16.78,54.82-81.73,68.65-84.49,69.21l-.59.12ZM1977.62,190.73c-.51,13.73-3.03,98.69,11.01,135.74,18.58,49.04,72.59,63.78,78.84,65.33,6.54-1.52,64.62-16.3,79.57-65.16,14.8-48.33,11.76-123.17,11.11-135.88l-91.55-33.44-88.99,33.41Z"/>
    <path class="st0" d="M2055.11,312.52h-.11c-2.7-.03-5.27-1.2-7.08-3.21l-35.6-39.65c-3.57-3.97-3.23-10.08.74-13.64,3.96-3.56,10.07-3.23,13.64.74l28.58,31.82,64.89-68.97c3.65-3.9,9.78-4.08,13.66-.42,3.89,3.65,4.08,9.78.42,13.66l-72.09,76.63c-1.83,1.94-4.38,3.04-7.04,3.04Z"/>
  </g>
  <g>
    <g>
      <path class="st0" d="M2998.51,421.21c-1.66,0-3.23-.99-3.89-2.63-.86-2.15.18-4.59,2.33-5.45,49.24-19.77,81.05-66.84,81.05-119.91,0-71.22-57.94-129.16-129.16-129.16s-129.16,57.94-129.16,129.16c0,27.88,8.73,54.42,25.26,76.76,1.38,1.86.98,4.48-.87,5.86-1.87,1.37-4.48.98-5.86-.87-17.6-23.79-26.91-52.05-26.91-81.74,0-75.84,61.7-137.54,137.54-137.54s137.54,61.7,137.54,137.54c0,56.51-33.88,106.63-86.31,127.68-.51.2-1.04.3-1.56.3Z"/>
      <path class="st0" d="M2948.84,426.58c21.43-13.57,47.17-34.41,61.76-53.81l-5.83,41.95,22.35,35.96c-21.2-11.8-53.19-20.41-78.28-24.1Z"/>
    </g>
    <path class="st0" d="M2943.22,380.34c-18.33,0-37.86-4.23-52.25-11.3l-3.23-1.59,10.6-33.61,4.31,1.98c13.38,6.12,26.12,9.09,38.94,9.09,9.92,0,26.56-2.55,26.56-19.62,0-4.57,0-18.46-35.81-18.46h-21.75v-35.43h22.22c31.18,0,31.18-13.73,31.18-18.24,0-14.26-13.74-16.39-21.93-16.39-11.74,0-22.76,2.73-34.67,8.59l-4.36,2.15-10.92-34.24,3.3-1.57c14.04-6.67,31.92-10.35,50.35-10.35,37.23,0,60.36,18.26,60.36,47.66,0,16.93-7.49,30.06-21.33,37.86,15.81,7.1,25.26,21.45,25.26,39.35,0,33.38-25.61,54.12-66.84,54.12ZM2897.93,363.03c12.91,5.62,29.55,8.93,45.3,8.93,36.6,0,58.46-17.1,58.46-45.74,0-17.58-10.79-30.48-28.85-34.52l-3.28-.74v-6.38l2.88-1.42c16.56-5.46,25.32-17.27,25.32-34.16,0-36.45-39.79-39.28-51.98-39.28-15.77,0-31.02,2.84-43.42,8.05l5.75,18.03c11.39-4.98,22.55-7.41,33.97-7.41,18.98,0,30.31,9.26,30.31,24.77,0,12.14-6.86,26.62-39.56,26.62h-13.84v18.67h13.37c29.32,0,44.18,9.03,44.18,26.84s-13.07,28-34.94,28c-12.64,0-25.15-2.61-38.1-7.96l-5.58,17.71Z"/>
    <path class="st0" d="M2996.83,427.35c-3.87,0-7.54-2.35-9.01-6.18-1.92-4.98.56-10.57,5.54-12.49,47.36-18.27,79.18-64.66,79.18-115.44,0-68.2-55.49-123.69-123.69-123.69s-123.69,55.49-123.69,123.69c0,26.69,8.37,52.1,24.2,73.5,3.17,4.29,2.27,10.34-2.02,13.52-4.28,3.16-10.33,2.27-13.52-2.02-18.31-24.75-27.99-54.14-27.99-85,0-78.86,64.16-143.01,143.01-143.01s143.01,64.16,143.01,143.01c0,58.72-36.79,112.35-91.55,133.47-1.14.44-2.32.65-3.48.65Z"/>
  </g>
</svg>